<?xml version="1.0" standalone="no"?><!DOCTYPE svg PUBLIC "-//W3C//DTD SVG 1.1//EN" "http://www.w3.org/Graphics/SVG/1.1/DTD/svg11.dtd"><svg t="1569650517083" class="icon" viewBox="0 0 1024 1024" version="1.1" xmlns="http://www.w3.org/2000/svg" p-id="1776" xmlns:xlink="http://www.w3.org/1999/xlink" width="200" height="200"><defs><style type="text/css"></style></defs><path d="M830.75000029 549.50000029c0-11.25 7.49999971-18.74999971 18.74999971-18.75000058s18.74999971 7.49999971 18.74999971 18.75000058v299.99999971c0 52.49999971-41.24999971 93.75000029-93.74999942 93.75000029h-525.00000058c-52.49999971 0-93.75000029-41.24999971-93.74999942-93.75000029v-299.99999971c0-11.25 7.49999971-18.74999971 18.74999971-18.75000058s18.74999971 7.49999971 18.74999971 18.75000058v299.99999971c0 29.99999971 26.25000029 56.25 56.25 56.25h525.00000058c29.99999971 0 56.25-26.25000029 56.25-56.25v-299.99999971zM152 294.49999971c-7.49999971 7.49999971-18.74999971 11.25-26.25000029 3.75000029s-11.25-18.74999971-3.74999942-26.25000029l127.49999942-187.49999971c3.75000029-3.75000029 7.49999971-7.49999971 15.00000029-7.49999971h495c7.49999971 0 11.25 3.75000029 15.00000029 7.49999971l127.49999942 187.49999971c7.49999971 7.49999971 3.75000029 18.74999971-3.74999942 26.25000029-7.49999971 7.49999971-18.74999971 3.75000029-26.25000029-3.75000029l-123.75-180h-476.25000029l-119.99999971 180z" p-id="1777"></path><path d="M155.75000029 305.74999971v112.5c0 41.24999971 33.75 74.99999971 74.99999971 75.00000058s74.99999971-33.75 74.99999971-75.00000058v-112.5h-149.99999942z m-18.75000058-37.49999942h187.50000058c11.25 0 18.74999971 7.49999971 18.74999971 18.74999971v131.24999971c0 63.74999971-48.75000029 112.5-112.5 112.5s-112.5-48.75000029-112.5-112.5v-131.24999971c0-11.25 7.49999971-18.74999971 18.74999971-18.74999971z" p-id="1778"></path><path d="M343.25 305.74999971v112.5c0 41.24999971 33.75 74.99999971 74.99999971 75.00000058s74.99999971-33.75 75.00000058-75.00000058v-112.5h-150.00000029z m-18.74999971-37.49999942h187.49999971c11.25 0 18.74999971 7.49999971 18.74999971 18.74999971v131.24999971c0 63.74999971-48.75000029 112.5-112.5 112.5s-112.5-48.75000029-112.5-112.5v-131.24999971c0-11.25 7.49999971-18.74999971 18.75000058-18.74999971z" p-id="1779"></path><path d="M530.74999971 305.74999971v112.5c0 41.24999971 33.75 74.99999971 75.00000058 75.00000058s74.99999971-33.75 74.99999971-75.00000058v-112.5h-150.00000029z m-18.74999971-37.49999942h187.49999971c11.25 0 18.74999971 7.49999971 18.75000058 18.74999971v131.24999971c0 63.74999971-48.75000029 112.5-112.5 112.5s-112.5-48.75000029-112.5-112.5v-131.24999971c0-11.25 7.49999971-18.74999971 18.74999971-18.74999971z" p-id="1780"></path><path d="M718.25000029 305.74999971v112.5c0 41.24999971 33.75 74.99999971 74.99999971 75.00000058s74.99999971-33.75 74.99999971-75.00000058v-112.5h-149.99999942z m-18.75000058-37.49999942h187.50000058c11.25 0 18.74999971 7.49999971 18.74999971 18.74999971v131.24999971c0 63.74999971-48.75000029 112.5-112.5 112.5s-112.5-48.75000029-112.5-112.5v-131.24999971c0-11.25 7.49999971-18.74999971 18.74999971-18.74999971zM395.74999971 729.50000029c-7.49999971 7.49999971-18.74999971 7.49999971-26.24999942 0-7.49999971-7.49999971-7.49999971-18.74999971 0-26.25000029l74.99999971-74.99999971c7.49999971-7.49999971 18.74999971-7.49999971 26.25000029 0 7.49999971 7.49999971 7.49999971 18.74999971 0 26.24999942l-75.00000058 75.00000058zM470.75000029 804.5c-7.49999971 7.49999971-18.74999971 7.49999971-26.25000029 0-7.49999971-7.49999971-7.49999971-18.74999971 0-26.25000029l150.00000029-149.99999942c7.49999971-7.49999971 18.74999971-7.49999971 26.24999942 0 7.49999971 7.49999971 7.49999971 18.74999971 0 26.24999942l-149.99999942 150.00000029z" p-id="1781"></path></svg>