<?xml version="1.0" standalone="no"?><!DOCTYPE svg PUBLIC "-//W3C//DTD SVG 1.1//EN" "http://www.w3.org/Graphics/SVG/1.1/DTD/svg11.dtd"><svg t="1569650500631" class="icon" viewBox="0 0 1024 1024" version="1.1" xmlns="http://www.w3.org/2000/svg" p-id="1303" xmlns:xlink="http://www.w3.org/1999/xlink" width="200" height="200"><defs><style type="text/css"></style></defs><path d="M841.104 473.353c-6.792 0-13.03 2.82-17.56 7.372-4.481 4.458-7.301 10.697-7.301 17.466V732.34c0 6.702 2.82 12.938 7.348 17.467h-0.047l0.047 0.046c4.484 4.484 10.72 7.3 17.513 7.3h67.929c6.702 0 12.893-2.863 17.422-7.392l0.092 0.046 0.092-0.046c4.436-4.483 7.302-10.719 7.302-17.466V498.19c0-6.308-2.449-12.151-6.376-16.543l-1.018-0.923c-4.528-4.552-10.722-7.372-17.514-7.372h-67.929zM575.257 830.72a25.62 25.62 0 0 1-2.68-1.57c-9.242-4.806-19.638-5.685-29.112-3.143-9.934 2.68-18.876 9.15-24.492 18.761h-0.046c-3.443 5.961-5.151 12.569-5.267 19.04v1.94a39 39 0 0 0 1.387 9.565c2.494 9.472 8.408 18.022 17.165 23.613 1.064 0.463 2.103 1.108 3.12 1.755 9.242 4.807 19.595 5.64 29.067 3.099 9.565-2.542 18.158-8.642 23.797-17.607a19.49 19.49 0 0 1 1.618-2.682c4.76-9.242 5.59-19.59 3.096-29.017-2.588-9.612-8.641-18.207-17.653-23.754z m23.753-43.62c21.535 12.382 36.044 32.345 41.958 54.572 5.915 22.088 3.421 46.58-9.056 68.069l-0.046 0.139h0.046c-12.384 21.487-32.44 35.95-54.668 41.865-22.18 5.962-46.672 3.42-68.276-9.012l-0.507-0.323c-20.795-12.154-34.89-31.376-41.082-52.632H307.7c-0.922 0-1.916-0.094-2.84-0.139-55.476-1.619-133.549-17.884-190.227-54.206-45.607-29.25-78.188-71.162-78.188-128.601v-208.64c0-20.493 8.434-39.162 21.928-52.702 13.562-13.472 32.256-21.882 52.772-21.882h10.606c8.224-94.498 50.092-179.458 113.539-242.812C306.384 109.84 404.582 65.942 513.06 65.942c108.5 0 206.744 43.899 277.814 114.854 63.4 63.286 105.176 148.267 113.492 242.812h4.667c20.566 0 39.235 8.48 52.726 21.95 0.557 0.532 1.064 1.11 1.57 1.71 12.663 13.47 20.428 31.469 20.428 50.923V732.34c0 20.285-8.504 38.954-22.088 52.495l0.09 0.046c-13.584 13.587-32.3 22.042-52.726 22.042h-67.929c-20.331 0-39.092-8.455-52.725-22.042v0.093c-13.495-13.54-21.996-32.164-21.996-52.634V498.19c0-20.492 8.455-39.16 21.95-52.701 13.54-13.472 32.255-21.882 52.771-21.882h13.448c-8.18-80.683-44.452-153.232-98.89-207.644-62.06-61.97-147.825-100.276-242.602-100.276-94.71 0-180.476 38.306-242.558 100.276-54.438 54.342-90.618 126.893-98.73 207.644h7.302c20.609 0 39.234 8.48 52.725 21.95 0.6 0.532 1.133 1.11 1.594 1.71 12.64 13.47 20.402 31.469 20.402 50.923v211.367c0 13.678-11.136 24.861-24.884 24.861-13.747 0-24.883-11.183-24.883-24.861V498.191c0-6.308-2.495-12.151-6.447-16.543l-0.994-0.923c-4.528-4.552-10.72-7.372-17.513-7.372h-67.929c-6.769 0-13.03 2.82-17.56 7.372-4.483 4.458-7.301 10.697-7.301 17.466v208.64c0 37.66 23.035 66.173 55.222 86.829 48.496 31.145 116.31 45.054 164.668 46.441l1.526-0.047h159.75A89.27 89.27 0 0 1 475.998 820v-0.092c12.454-21.44 32.395-35.952 54.645-41.914 22.156-5.914 46.74-3.372 68.274 9.106l0.047 0.046 0.046-0.046z" p-id="1304"></path></svg>