<?xml version="1.0" standalone="no"?><!DOCTYPE svg PUBLIC "-//W3C//DTD SVG 1.1//EN" "http://www.w3.org/Graphics/SVG/1.1/DTD/svg11.dtd"><svg t="1570779781158" class="icon" viewBox="0 0 1160 1024" version="1.1" xmlns="http://www.w3.org/2000/svg" p-id="1449" xmlns:xlink="http://www.w3.org/1999/xlink" width="54.375" height="48"><defs><style type="text/css"></style></defs><path d="M403.28 785.84000029c16.92 0 30.6-12.71999971 30.6-28.38000058V399.68c0-15.72000029-13.74000029-28.44-30.6-28.44s-30.6 12.71999971-30.6 28.44v357.77999971c0.60000029 15.59999971 14.4 28.37999971 30.6 28.38000058z m337.43999971 0c16.92 0 30.6-12.71999971 30.6-28.38000058V399.68c0-15.72000029-13.74000029-28.44-30.6-28.44s-30.6 12.71999971-30.6 28.44v357.77999971c0 15.66 13.68 28.37999971 30.6 28.38000058z m-168.71999942 0c16.92 0 30.6-12.71999971 30.6-28.38000058V399.68c0-15.72000029-13.74000029-28.44-30.6-28.44s-30.6 12.71999971-30.6 28.44v357.77999971c0 15.66 13.68 28.37999971 30.6 28.38000058z" p-id="1450"></path><path d="M1028.84000029 182.35999971H795.20000029v-38.88c0-40.14-35.16000029-72.78000029-78.36000029-72.77999942H428.00000029c-43.2 0-78.36000029 32.64000029-78.36000029 72.77999942v38.88H115.16000029c-16.92 0-30.6 12.71999971-30.6 28.38000058 0 15.72000029 13.68 28.44 30.6 28.44h113.4v596.99999971c0 64.98 56.99999971 117.83999971 126.95999942 117.83999971h432.96000029c69.95999971 0 126.9-52.85999971 126.9-117.9V238.46000029h113.46000029c16.92 0 30.6-12.71999971 30.6-28.44 0-15.54000029-13.43999971-27.65999971-30.6-27.66000058zM410.00000029 143.47999971c-0.11999971-9.11999971 7.80000029-16.56 17.51999942-16.67999971h289.32000029c9.78000029-0.06000029 17.82 7.2 17.93999971 16.31999971v39.24H410.00000029v-38.88z m444.17999971 692.64c0 33.66-29.45999971 61.08000029-65.7 61.08000029H355.51999971c-36.24000029 0-65.7-27.42000029-65.7-61.08000029V238.46000029h564.36000029v597.65999942z" p-id="1451"></path></svg>