<?xml version="1.0" standalone="no"?><!DOCTYPE svg PUBLIC "-//W3C//DTD SVG 1.1//EN" "http://www.w3.org/Graphics/SVG/1.1/DTD/svg11.dtd"><svg t="1570327031042" class="icon" viewBox="0 0 1024 1024" version="1.1" xmlns="http://www.w3.org/2000/svg" p-id="1034" xmlns:xlink="http://www.w3.org/1999/xlink" width="200" height="200"><defs><style type="text/css"></style></defs><path d="M438 140.439H107c-13.808 0-25-11.193-25-25s11.192-25 25-25h328.989M589.666 90.439h327.333c13.807 0 25 11.193 25 25s-11.193 25-25 25H591.334" p-id="1035"></path><path d="M512 220.438c-57.897 0-105-47.103-105-105s47.103-105 105-105 105 47.103 105 105-47.103 105-105 105z m0-159.999c-30.327 0-55 24.673-55 55s24.673 55 55 55 55-24.673 55-55-24.673-55-55-55zM784.483 799.845h-181.15v-50H735V421.809c0-68.925-56.075-125-125-125H410c-68.925 0-125 56.075-125 125v328.036h133v50H235.529l-0.48499999-24.50499999a180.453 180.453 0 0 1-0.04300001-3.53100001v-350c0-96.495 78.504-175 175-175h200c96.495 0 175 78.505 175 175v350c0 1.176-0.021 2.34799999-0.043 3.52l-0.475 24.516z" p-id="1036"></path><path d="M647 888H377V693.907c0-74.439 60.561-135 135-135s135 60.561 135 135V888z m-220-50h170V693.907c0-46.869-38.131-85-85-85s-85 38.131-85 85V838z" p-id="1037"></path><path d="M512 1001.207c-41.355 0-75-33.645-75-75v-60h50v60c0 13.785 11.215 25 25 25s25-11.215 25-25v-60h50v60c0 41.35600001-33.645 75-75 75z" p-id="1038"></path></svg>