<?xml version="1.0" standalone="no"?><!DOCTYPE svg PUBLIC "-//W3C//DTD SVG 1.1//EN" "http://www.w3.org/Graphics/SVG/1.1/DTD/svg11.dtd"><svg t="1570349333626" class="icon" viewBox="0 0 1024 1024" version="1.1" xmlns="http://www.w3.org/2000/svg" p-id="1237" xmlns:xlink="http://www.w3.org/1999/xlink" width="200" height="200"><defs><style type="text/css"></style></defs><path d="M93.86666667 223.68h82.912a119.52 119.52 0 0 0 234.16533333 0h522.95466667a24 24 0 0 0 0-48H410.976a119.52 119.52 0 0 0-234.16533333 0H93.86666667a24 24 0 0 0 0 48z m199.98933333-95.49866667a71.46666667 71.46666667 0 1 1-71.46666667 71.46666667 71.584 71.584 0 0 1 71.49866667-71.46666667zM933.89866667 467.66933333H850.98666667a119.52 119.52 0 0 0-234.15466667 0H93.86666667a24 24 0 1 0 0 48h522.95466666a119.46666667 119.46666667 0 0 0 234.16533334 0h82.912a24 24 0 0 0 0-48zM733.86666667 563.2a71.46666667 71.46666667 0 1 1 71.46666666-71.46666667 71.59466667 71.59466667 0 0 1-71.46666666 71.46666667zM933.89866667 759.66933333H410.976a119.52 119.52 0 0 0-234.16533333 0H93.86666667a24 24 0 1 0 0 48h82.912a119.52 119.52 0 0 0 234.16533333 0h522.95466667a24 24 0 0 0 0-48z m-640 95.49866667a71.46666667 71.46666667 0 1 1 71.46666666-71.46666667 71.584 71.584 0 0 1-71.47733333 71.46666667z" p-id="1238"></path></svg>