<?xml version="1.0" standalone="no"?><!DOCTYPE svg PUBLIC "-//W3C//DTD SVG 1.1//EN" "http://www.w3.org/Graphics/SVG/1.1/DTD/svg11.dtd"><svg t="1570779787003" class="icon" viewBox="0 0 1024 1024" version="1.1" xmlns="http://www.w3.org/2000/svg" p-id="1576" xmlns:xlink="http://www.w3.org/1999/xlink" width="48" height="48"><defs><style type="text/css"></style></defs><path d="M288.08533333 747.9296c14.19946667 0 28.39893333-6.5536 41.50613334-14.19946667h7.64586666L197.4272 593.92v6.5536c-6.5536 14.19946667-14.19946667 28.39893333-14.19946667 41.50613333L134.07573333 795.98933333l154.0096-48.05973333zM777.4208 188.68906667l-41.50613333-49.152c-28.39893333-28.39893333-63.35146667-28.39893333-90.65813334 0l-41.50613333 49.152 133.25653333 133.25653333 41.50613334-41.50613333c27.30666667-29.4912 27.30666667-70.99733333-1.09226667-91.7504zM693.31626667 363.45173333L561.152 230.1952 246.5792 544.768l132.16426667 133.25653333 314.5728-314.5728zM64.17066667 866.98666667h897.8432v69.90506666H64.17066667v-69.90506666z" p-id="1577"></path></svg>