<?xml version="1.0" standalone="no"?><!DOCTYPE svg PUBLIC "-//W3C//DTD SVG 1.1//EN" "http://www.w3.org/Graphics/SVG/1.1/DTD/svg11.dtd"><svg t="1589951558170" class="icon" viewBox="0 0 1024 1024" version="1.1" xmlns="http://www.w3.org/2000/svg" p-id="592" xmlns:xlink="http://www.w3.org/1999/xlink" width="200" height="200"><defs><style type="text/css"></style></defs><path d="M138.72 335.55l4.84-2.8a19 19 0 0 1 26 6.94l23.16 40c57.86-151.64 214.17-254.64 390.84-230.62 163 22.17 291.67 154.12 310.25 317.61C918.81 686.65 747.44 873 532.54 873a362.58 362.58 0 0 1-265.35-115c-12-12.77-3.19-33.64 14.31-33.64a32 32 0 0 1 22.84 9.4c71.09 72.28 176.25 110.94 289.46 90C726 799.19 829.09 691.58 848.91 558.58 878.52 360 725.47 189.27 532.54 189.27c-136 0-252.08 84.86-298.43 204.48l39.18-22.67a21.82 21.82 0 0 1 21.86 37.78L212 456.95a21.82 21.82 0 0 1-29.82-8 22 22 0 0 1-1.06-2.1l-49.38-85.34a19 19 0 0 1 6.98-25.96z" p-id="593"></path></svg>