<?xml version="1.0" standalone="no"?><!DOCTYPE svg PUBLIC "-//W3C//DTD SVG 1.1//EN" "http://www.w3.org/Graphics/SVG/1.1/DTD/svg11.dtd"><svg t="1589951593101" class="icon" viewBox="0 0 1024 1024" version="1.1" xmlns="http://www.w3.org/2000/svg" p-id="1559" xmlns:xlink="http://www.w3.org/1999/xlink" width="200" height="200"><defs><style type="text/css"></style></defs><path d="M981.2992 934.10304l-233.61024-233.49248c58.66496-70.37952 95.33952-159.80032 95.33952-258.57024C843.02848 217.64608 661.2224 35.84 436.94592 35.84 212.5568 35.84 30.75072 217.64608 30.75072 442.0352c0 224.27648 181.80608 406.19008 406.1952 406.19008 98.77504 0 188.19584-36.66432 258.58048-95.33952l233.49248 233.4976c14.42816 14.42816 37.85216 14.42816 52.1728 0 14.42816-14.42304 14.5408-37.84192 0.10752-52.28032zM436.94592 774.30272c-183.5776 0-332.2624-148.80256-332.2624-332.26752 0-183.5776 148.80256-332.26752 332.2624-332.26752 183.58272 0 332.26752 148.80256 332.26752 332.26752 0 160.98816-130.11456 332.26752-332.26752 332.26752z" fill="" p-id="1560"></path><path d="M590.04928 393.34912H472.05888V275.3536c0-21.66784-17.6384-39.31136-39.30624-39.31136-21.67296 0-39.31136 17.6384-39.31136 39.31136V393.344H275.45088c-21.66784 0-39.31136 17.6384-39.31136 39.31136 0 21.66784 17.6384 39.30624 39.31136 39.30624h117.9904v117.98528c0 21.66784 17.6384 39.31136 39.31136 39.31136 21.66784 0 39.30624-17.63328 39.30624-39.31136V471.96672H590.04928c21.66784 0 39.31136-17.6384 39.31136-39.30624 0-21.67296-17.6384-39.31136-39.31136-39.31136z" fill="" p-id="1561"></path></svg>