<?xml version="1.0" standalone="no"?><!DOCTYPE svg PUBLIC "-//W3C//DTD SVG 1.1//EN" "http://www.w3.org/Graphics/SVG/1.1/DTD/svg11.dtd"><svg t="1588060699289" class="icon" viewBox="0 0 1024 1024" version="1.1" xmlns="http://www.w3.org/2000/svg" p-id="6273" xmlns:xlink="http://www.w3.org/1999/xlink" width="48" height="48"><defs><style type="text/css"></style></defs><path d="M130.8672 459.5712c20.0704 0 36.0448-16.1792 36.0448-36.0448 0-182.272 148.2752-330.752 330.752-330.752s330.5472 148.2752 330.5472 330.752c0 63.0784-17.8176 124.3136-51.6096 177.3568-10.6496 16.7936-5.7344 39.1168 11.0592 49.9712 5.9392 3.8912 12.6976 5.7344 19.2512 5.7344 11.8784 0 23.7568-5.9392 30.5152-16.5888 41.1648-64.512 62.8736-139.264 62.8736-216.2688 0.4096-222.4128-180.224-403.2512-402.432-403.2512S94.8224 201.3184 94.8224 423.5264c0 19.8656 16.1792 36.0448 36.0448 36.0448z" p-id="6274"></path><path d="M618.2912 229.9904c-11.0592-11.0592-29.0816-11.0592-40.1408 0l-79.872 79.6672-80.6912-80.6912c-11.0592-11.0592-29.0816-11.0592-40.1408 0-11.0592 11.0592-11.0592 29.0816 0 40.1408l92.16 92.16c0 0.6144-0.2048 1.024-0.2048 1.6384v28.4672h-71.2704c-15.7696 0.2048-28.672 12.9024-28.672 28.672s12.9024 28.4672 28.672 28.4672h71.2704v57.344h-71.2704c-15.7696 0-28.672 12.6976-28.672 28.4672s12.6976 28.4672 28.4672 28.4672h71.2704v85.4016c0 15.7696 12.6976 28.4672 28.4672 28.4672s28.4672-12.6976 28.4672-28.4672v-85.4016h71.2704c15.7696 0 28.4672-12.6976 28.4672-28.4672s-12.6976-28.4672-28.4672-28.4672h-71.2704v-57.1392h71.2704c15.7696 0 28.4672-12.6976 28.4672-28.4672s-12.6976-28.4672-28.4672-28.4672h-71.2704v-28.672c0-0.2048-0.2048-0.6144-0.2048-1.024l92.16-92.16c11.264-10.8544 11.264-28.8768 0.2048-39.936z" p-id="6275"></path><path d="M975.2576 760.2176c-100.1472-20.48-241.4592-83.5584-241.664-83.5584-49.3568-32.9728-88.064-48.9472-118.3744-48.9472-25.6 0-46.8992 11.6736-58.5728 31.9488-14.9504 26.2144-10.0352 61.2352 2.4576 82.1248 5.7344 9.6256 16.7936 26.0096 28.672 43.2128-246.784-15.5648-289.3824-71.8848-338.3296-136.3968-15.1552-20.0704-31.1296-40.96-52.6336-61.8496-39.936-38.7072-72.2944-56.7296-102.4-56.7296-23.1424 0-43.008 11.0592-56.32 30.9248-27.0336 41.1648-18.0224 115.712-8.192 138.24C141.312 956.416 409.8048 1001.2672 421.0688 1003.1104c1.8432 0.2048 3.6864 0.4096 5.5296 0.4096h541.2864c20.0704 0 36.0448-16.1792 36.0448-36.0448v-171.8272c0.2048-17.2032-11.6736-31.9488-28.672-35.4304z m-43.2128 171.008H429.8752c-25.6-4.9152-243.712-52.8384-333.6192-260.096-5.12-13.5168-5.7344-54.4768 0.8192-67.9936 5.9392 1.6384 21.0944 8.6016 49.152 35.6352 17.8176 16.9984 31.1296 34.816 45.4656 53.6576 62.0544 81.7152 120.6272 158.72 467.3536 168.1408 15.36 1.024 26.624-7.168 32.9728-19.2512 6.5536-12.0832 5.3248-27.0336-2.8672-38.0928-15.1552-21.0944-57.1392-79.4624-67.9936-97.8944-0.6144-1.024-1.024-2.8672-1.2288-4.7104 9.8304 1.6384 32.3584 8.8064 75.776 37.6832 4.7104 2.6624 133.5296 58.9824 236.1344 86.016l0.2048 106.9056z" p-id="6276"></path></svg>