<?xml version="1.0" standalone="no"?><!DOCTYPE svg PUBLIC "-//W3C//DTD SVG 1.1//EN" "http://www.w3.org/Graphics/SVG/1.1/DTD/svg11.dtd"><svg t="1588059311111" class="icon" viewBox="0 0 1024 1024" version="1.1" xmlns="http://www.w3.org/2000/svg" p-id="4004" xmlns:xlink="http://www.w3.org/1999/xlink" width="48" height="48"><defs><style type="text/css"></style></defs><path d="M361.8304 81.1008a197.2224 197.2224 0 0 0-196.7616 197.3248 196.8128 196.8128 0 0 0 393.5232 0 196.8128 196.8128 0 0 0-196.7616-197.3248z m405.2992 489.6256a147.0464 147.0464 0 0 0-34.2528-10.3936 25.2928 25.2928 0 0 1-21.248-24.4224v-22.1696h-32.256v22.1696a24.8832 24.8832 0 0 1-19.8144 24.4224 140.6976 140.6976 0 0 0-35.9936 10.3936 163.2256 163.2256 0 0 0-32.2048 17.8176 25.2416 25.2416 0 0 1-31.3344-3.1744l-15.8208-16.128-23.296 22.9888 16.384 16.4352a25.088 25.088 0 0 1 2.6112 30.72 143.6672 143.6672 0 0 0-16.9984 31.9488l-0.5632 1.1776c-4.608 10.3424-8.3456 22.1184-10.6496 34.5088a24.576 24.576 0 0 1-24.4224 20.992h-22.4768v32.5632h22.4768c11.776 0 21.8112 8.0384 24.1152 19.5072 2.304 12.3904 6.3488 24.4736 10.9568 36.1984 4.3008 10.9568 10.3424 22.1696 17.2544 32.256a25.1904 25.1904 0 0 1-2.304 31.3856l-16.384 15.7696 23.296 23.04 15.8208-15.8208a23.8592 23.8592 0 0 1 30.7712-2.56c10.3424 6.2976 20.6848 12.5952 31.6416 16.9472l1.1264 0.3072c11.52 4.608 23.04 8.0384 34.56 10.5984 12.032 1.7408 21.248 11.776 21.248 23.9104v22.9888h32.256v-22.9888c0-10.9568 8.2944-21.6064 20.1216-23.9104 12.0832-1.9968 24.1664-5.6832 35.3792-10.5984h0.256c11.52-4.6592 22.4256-10.3936 32.8192-17.2544a23.7056 23.7056 0 0 1 31.0784 2.56l16.0768 15.8208 23.04-23.04-16.128-15.7696a25.4976 25.4976 0 0 1-3.1744-31.3856c6.912-9.7792 12.9536-20.6848 17.5616-31.0784l0.5632-1.1776c4.3008-11.1616 8.0384-22.9888 10.3424-34.4576a24.0128 24.0128 0 0 1 24.1664-21.248h22.4256v-32.5632h-22.4256v-0.256a23.9616 23.9616 0 0 1-23.8592-19.8656 179.2 179.2 0 0 0-10.6496-35.3792 215.552 215.552 0 0 0-17.8176-33.1264 24.064 24.064 0 0 1 2.8672-30.72l16.128-16.4352-23.04-22.9888-16.0768 16.128c-8.0896 7.7312-21.0432 10.0352-30.5152 3.1744a217.6 217.6 0 0 0-32.2048-17.6128l-1.4336-0.2048zM505.344 539.648l-15.2064-15.5648a272.64 272.64 0 0 1-128.3072 31.8976 273.2032 273.2032 0 0 1-128.256-31.8976c-45.4656 46.0288-110.4896 98.3552-136.3456 159.3344a230.7072 230.7072 0 0 0-16.128 86.5792v86.0672c0 3.6864 0.5632 6.8608 1.6896 9.728h105.0112v-107.3152c0-13.4656 10.6496-23.808 24.4736-23.808 13.2096 0 24.1152 10.3424 24.1152 23.808v143.872l0.3072 3.6864v36.5568h250.2656v-12.0832l-17.5616-17.5616a23.9616 23.9616 0 0 1 0-34.5088l19.5584-19.5584a212.6848 212.6848 0 0 1-11.776-24.4224c-3.1744-8.0384-6.6048-16.6912-8.9088-24.9856h-27.5968a24.8832 24.8832 0 0 1-24.4736-24.7808v-81.152c0-13.7728 11.2128-24.1152 24.4736-24.1152h27.5968c2.304-8.6016 5.7344-17.5616 8.9088-25.6l0.5632-1.1264c3.7376-7.7824 7.2192-15.872 11.2128-23.296l-19.5584-19.6096a23.9616 23.9616 0 0 1 0-34.5088l35.9424-35.6352z m229.5808 165.632a53.248 53.248 0 0 0-39.424-16.384c-15.2576 0-29.0304 5.7344-39.1168 16.384a54.0672 54.0672 0 0 0-16.128 38.8608c0 15.2576 6.3488 29.0304 16.128 39.1168 10.0864 10.0352 23.8592 16.0768 39.1168 16.0768 14.9504 0 28.16-5.4272 37.9392-14.9504l1.4848-1.1264c10.0352-10.0864 16.384-23.8592 16.384-39.1168a53.248 53.248 0 0 0-16.384-38.8608z m-39.424-65.28c28.7744 0 54.6304 11.776 73.6256 30.8224 18.688 18.688 30.464 44.544 30.464 73.3184 0 28.4672-11.776 54.6304-30.464 73.6256l-1.4336 1.1264c-18.688 18.176-44.032 29.3376-72.192 29.3376a103.936 103.936 0 0 1-104.1408-104.0896c0-28.7744 11.52-54.6304 30.5152-73.3184a103.424 103.424 0 0 1 73.6256-30.8224zM361.8304 0c153.0368 0 277.8624 125.3888 277.8624 278.4256a278.0672 278.0672 0 0 1-81.1008 195.9424h-0.5632l-1.7408 1.9968c16.6912 16.6912 33.3824 32.4608 50.0224 48.896 8.0896-3.1744 16.128-5.7344 24.4736-8.3456v-27.5968a24.064 24.064 0 0 1 24.4224-24.4736h81.1008c13.2608 0 24.1664 10.6496 24.1664 24.4736v27.5968c8.6528 2.6112 17.3056 5.4272 25.344 8.9088l1.1776 0.5632c7.9872 3.1744 15.7696 7.4752 23.2448 11.2128l19.8656-19.8656a24.2176 24.2176 0 0 1 34.2528 0L921.6 575.2832a23.9616 23.9616 0 0 1 0 34.5088l-19.6096 19.6096c4.3008 7.9872 8.6528 15.8208 11.8272 24.4224 3.7376 8.0384 6.6048 16.9984 8.9088 25.6h28.16c13.2608 0 24.1664 10.3424 24.1664 24.1152v81.152a24.6272 24.6272 0 0 1-24.1664 24.7808h-28.16a163.584 163.584 0 0 1-8.9088 24.9856l-0.3072 0.8192a174.2336 174.2336 0 0 1-11.52 23.6032l19.6096 19.5584a23.9616 23.9616 0 0 1 0 34.5088l-57.2416 57.2416a24.064 24.064 0 0 1-34.2528 0l-19.8656-19.5584a234.9056 234.9056 0 0 1-49.7664 20.736v27.5968c0 13.824-10.9056 25.0368-24.1664 25.0368h-81.1008a24.5248 24.5248 0 0 1-24.4224-25.0368v-27.5968a221.184 221.184 0 0 1-25.6-8.9088h-1.1776a300.6464 300.6464 0 0 1-23.296-11.8272l-12.6464 12.6464v19.8656a40.96 40.96 0 0 1-40.5504 40.8576H195.84a40.8576 40.8576 0 0 1-40.2432-40.8576V946.8928H76.4928c-3.4816 0-5.9904-0.5632-8.6016-1.1264a75.4688 75.4688 0 0 1-49.5104-31.6416A102.5024 102.5024 0 0 1 0 856.064v-86.0672c0-41.4208 7.4752-80.4864 22.4256-116.736 29.9008-71.68 91.1872-123.136 144.9984-176.896l-1.792-1.9968A276.0192 276.0192 0 0 1 83.968 278.4256C83.968 125.3888 209.1008 0 361.8304 0z" p-id="4005"></path></svg>