<?xml version="1.0" standalone="no"?><!DOCTYPE svg PUBLIC "-//W3C//DTD SVG 1.1//EN" "http://www.w3.org/Graphics/SVG/1.1/DTD/svg11.dtd"><svg t="1588059204600" class="icon" viewBox="0 0 1065 1024" version="1.1" xmlns="http://www.w3.org/2000/svg" p-id="2519" xmlns:xlink="http://www.w3.org/1999/xlink" width="49.921875" height="48"><defs><style type="text/css"></style></defs><path d="M781.97363281 889.98945313H278.03164062c-19.77011719 0-36.00527344 36.00527344-36.00527343 36.00527343V962h575.95253906v-36.00527344c0-19.90107422-16.23515625-36.00527344-36.00527344-36.00527343zM889.98945313 62h-719.97363282C110.31171875 62 62 110.44355469 62 170.01582031v503.94199219c0 59.57226563 48.31259766 108.01582031 108.01582031 108.01582031H422.05273437v36.00527344c0 19.90107422 16.23515625 36.00527344 36.00527344 36.00527344h144.02021485c19.77011719 0 36.00527344-18.59150391 36.00527343-36.00527344V781.97363281h252.03691407c59.57226563 0 108.01582031-48.31259766 108.01582031-108.01582031V170.01582031C998.00527344 110.44355469 949.56171875 62 889.98945313 62z m-719.97363282 575.95253906c-19.77011719 0-36.00527344-16.10419922-36.00527343-36.00527344V170.01582031c0-19.90107422 16.10419922-36.00527344 36.00527343-36.00527343h719.97363282c19.77011719 0 36.00527344 16.23515625 36.00527343 36.00527343V601.94726563c0 19.90107422-16.23515625 36.00527344-36.00527343 36.00527343h-719.97363282z m719.97363282 109.32539063c-20.55585938 0-37.31484375-16.75898437-37.31484375-37.31484375s16.75898437-37.31396484 37.31484375-37.31396485c20.68681641 0 37.31484375 16.75810547 37.31484375 37.31396485 0 20.68681641-16.75898437 37.31484375-37.31484375 37.31484375z" p-id="2520"></path><path d="M792.57939453 225.00546875L674.08789063 343.49609375l-82.48447266-82.48447266c-7.85566406-7.98662109-19.11621094-11.65253906-30.24404297-10.21289062-11.12958984 1.44140625-20.94873047 8.11845703-26.44804687 17.80664062L427.94404297 455.83173828l-44.25292969-110.76503906c-4.45253906-11.25966797-14.40263672-19.50820313-26.18613281-21.86542969-12.04541016-2.48730469-24.09082031 1.30957031-32.73222656 9.82001953L216.49501953 441.03710937c-14.00976563 14.00976563-14.00976563 36.79101563 0 50.93085938 14.00976563 14.00976563 36.79101563 14.00976563 50.93085938 0l69.39228515-69.39228516 51.71660157 129.35742188c5.10644531 12.83115234 17.15185547 21.60351563 30.89882812 22.51933594 0.78574219 0 1.70244141 0.13183594 2.48730469 0.13183593 12.83203125 0 24.8765625-6.93984375 31.29257812-18.19951172l120.58417969-211.05615234 74.6296875 74.62880859c14.00976563 14.00976563 36.79101563 14.00976563 50.93085938 0l144.02109375-144.02109375c14.00976563-14.00976563 14.00976563-36.79101563 0-50.93085937-14.00976563-14.00976563-36.79101563-14.00976563-50.80078125 0z" p-id="2521"></path></svg>