<?xml version="1.0" standalone="no"?><!DOCTYPE svg PUBLIC "-//W3C//DTD SVG 1.1//EN" "http://www.w3.org/Graphics/SVG/1.1/DTD/svg11.dtd"><svg t="1569650509076" class="icon" viewBox="0 0 1024 1024" version="1.1" xmlns="http://www.w3.org/2000/svg" p-id="1539" xmlns:xlink="http://www.w3.org/1999/xlink" width="200" height="200"><defs><style type="text/css"></style></defs><path d="M817.472 562.048a203.712 203.712 0 1 1-183.296 357.248H192a128 128 0 0 1-128-128V192a128 128 0 0 1 128-128h497.472a128 128 0 0 1 128 128v370.048z m-40.768-8.32V168.704a64 64 0 0 0-64-64h-544a64 64 0 0 0-64 64v645.824a64 64 0 0 0 64 64h424.704a203.648 203.648 0 0 1 183.296-324.8z m-104.576-286.08H209.344c-12.8 0-23.168-9.152-23.168-20.352 0-11.264 10.368-20.416 23.168-20.416h462.784c12.8 0 23.168 9.152 23.168 20.416 0 11.2-10.432 20.352-23.168 20.352z m0 122.176H209.344c-12.8 0-23.168-9.152-23.168-20.352 0-11.264 10.368-20.352 23.168-20.352h462.784c12.8 0 23.168 9.088 23.168 20.352 0 11.2-10.432 20.352-23.168 20.352z m0 122.176H209.344c-12.8 0-23.168-9.152-23.168-20.352 0-11.264 10.368-20.352 23.168-20.352h462.784c12.8 0 23.168 9.088 23.168 20.352 0 11.2-10.432 20.352-23.168 20.352zM206.528 593.472a20.352 20.352 0 1 1 0 40.704 20.352 20.352 0 0 1 0-40.704z m81.472 0a20.352 20.352 0 1 1 0 40.704 20.352 20.352 0 0 1 0-40.704z m81.472 0a20.352 20.352 0 1 1 0 40.704 20.352 20.352 0 0 1 0-40.704z m386.88 325.76a162.88 162.88 0 1 0 0-325.76 162.88 162.88 0 0 0 0 325.76z m-29.44-42.24v-55.168h-58.112v-27.904h58.176v-20.288h-58.176v-28.224h45.184L659.2 635.776h60.8l17.92 48.512c5.952 16.64 11.968 33.536 18.304 49.792h1.664c5.952-16.64 12.288-33.536 18.56-49.792l17.6-48.512h59.52l-55.168 109.632h45.504v28.224h-58.112v20.288h58.112v27.904h-58.112v55.168h-58.88z" p-id="1540"></path></svg>