<?xml version="1.0" standalone="no"?><!DOCTYPE svg PUBLIC "-//W3C//DTD SVG 1.1//EN" "http://www.w3.org/Graphics/SVG/1.1/DTD/svg11.dtd"><svg t="1569650520540" class="icon" viewBox="0 0 1024 1024" version="1.1" xmlns="http://www.w3.org/2000/svg" p-id="1898" xmlns:xlink="http://www.w3.org/1999/xlink" width="200" height="200"><defs><style type="text/css"></style></defs><path d="M898.9 506.1c11.9-15.4 21.5-30.5 29.3-45.9 17.3-34 25.7-69.2 25.7-107.7 0-70.4-27.4-136.6-77.2-186.5-49.8-49.8-116-77.2-186.5-77.2-36 0-70.9 7.1-103.8 21.2-18.5 7.9-35.8 17.8-51.8 29.6l-14.2 11.2c-1.2 1-2.5 2.1-3.7 3.1l-1-1-0.3 0.3c-49-48.2-115.2-75.5-184.5-75.5-70.4 0-136.6 27.4-186.5 77.2-49.8 49.8-77.2 116-77.2 186.5 0 63.7 19.6 119.4 58.3 165.9l-32.7 34.2C62.7 573 63.9 623 95.3 653.1c15.3 14.6 34.9 21.8 54.5 21.8 6.9 0 13.7-0.9 20.4-2.7-5.7 26 1.9 54.3 22.5 74 15.3 14.6 34.9 21.8 54.5 21.8 5.6 0 11.2-0.6 16.7-1.8-4.2 24.9 3.6 51.5 23.2 70.2 15.3 14.6 34.9 21.8 54.5 21.8 5.6 0 11.2-0.6 16.7-1.8-0.8 4.9-1.2 9.9-1.1 15 0.5 21.1 9.1 40.7 24.3 55.3 14.7 14.1 34 21.8 54.5 21.8h1.8c21.1-0.5 40.7-9.1 55.3-24.3l19.7-20.6 19.5 18.7c14.7 14.1 34 21.8 54.5 21.8h1.8c21.1-0.5 40.7-9.1 55.3-24.3s22.2-35.2 21.8-56.3c-0.1-6.4-1-12.6-2.6-18.7 5.5 1.2 11.2 1.8 16.9 1.8h1.8c21.1-0.5 40.7-9.1 55.3-24.3 14.5-15.2 22.2-35.2 21.8-56.3-0.1-5.1-0.7-10.1-1.7-14.9 4.3 0.7 8.7 1.1 13.1 1.1h1.8c21.1-0.5 40.7-9.1 55.3-24.3 18.7-19.6 25.4-46.5 20.1-71.2 4.3 0.7 8.7 1.1 13.1 1.1 20.8 0 41.6-8.2 57.1-24.3 14.5-15.2 22.2-35.2 21.8-56.3-0.5-21.1-9.1-40.7-24.2-55.2l-16.4-15.9zM690.3 128.8c123.3 0 223.7 100.3 223.7 223.7 0 45.1-13.5 84.4-44 125.4L645 258.6l-2-2-5.1 5.1-136.4 132.9c-23.8 23.3-62.1 22.9-85.4-0.8-11.2-11.5-17.3-26.7-17.2-42.9 0.2-16.2 6.6-31.3 18-42.5l130.5-128c40.1-33.4 90-51.6 142.9-51.6zM123 624.2c-15.5-14.8-16.1-39.5-1.2-55l127.9-133.8c7.1-7.5 16.8-11.7 27.2-11.9h0.9c10.1 0 19.6 3.8 26.8 10.7 7.5 7.1 11.7 16.8 11.9 27.2s-3.6 20.3-10.7 27.8L178 623c-14.8 15.5-39.5 16-55 1.2z m97.4 93.1c-15.5-14.8-16.1-39.5-1.2-55l127.9-133.8c7.1-7.5 16.8-11.7 27.2-11.9h0.9c10.1 0 19.6 3.8 26.8 10.7 7.5 7.1 11.7 16.8 11.9 27.2 0.2 10.4-3.6 20.3-10.7 27.8L275.4 716.1c-14.8 15.5-39.5 16.1-55 1.2z m94.4 90.3c-7.5-7.1-11.7-16.8-11.9-27.2-0.2-10.4 3.6-20.3 10.7-27.8l127.9-133.8c7.6-8 17.9-12 28.1-12 9.7 0 19.3 3.6 26.9 10.8 15.5 14.8 16.1 39.5 1.2 55L369.8 806.3c-7.1 7.5-16.8 11.7-27.2 11.9-10.4 0.3-20.3-3.5-27.8-10.6z m149.5 89c-7.1 7.5-16.8 11.7-27.2 11.9-10.4 0.2-20.3-3.6-27.8-10.7s-11.7-16.8-11.9-27.2c-0.2-10.4 3.6-20.3 10.7-27.8L535.9 709c7.6-8 17.9-12 28.1-12 9.7 0 19.3 3.6 26.9 10.8 15.5 14.8 16.1 39.5 1.2 55L464.3 896.6z m150.8-4.5c-7.1 7.5-16.8 11.7-27.2 11.9-10.4 0.3-20.3-3.6-27.8-10.7l-19.5-18.7 53.8-56.2 19.5 18.7c7.5 7.1 11.7 16.8 11.9 27.2 0.2 10.5-3.6 20.4-10.7 27.8z m273.6-286.3c-14.8 15.5-39.5 16.1-55 1.2L699.9 479.2l-8.9 9.3-2.1 2.2-16.6 17.4-8.9 9.3 133.8 127.9c15.5 14.8 16.1 39.5 1.2 55-7.1 7.5-16.8 11.7-27.2 11.9-10.4 0.2-20.3-3.6-27.8-10.7L609.6 573.6 582 602.5l-8.9 9.3L707 739.7c7.5 7.1 11.7 16.8 11.9 27.2 0.2 10.4-3.6 20.3-10.7 27.8s-16.8 11.7-27.2 11.9c-10.4 0.2-20.3-3.6-27.8-10.7l-21.1-20.2c18-30.8 13.4-71.2-13.6-96.9-19.6-18.7-46.5-25.4-71.2-20.1 4.2-24.9-3.6-51.4-23.3-70.2-19.6-18.8-46.5-25.4-71.2-20.1 0.8-4.9 1.2-9.9 1.1-14.9-0.5-21.1-9.1-40.7-24.3-55.3-15.2-14.5-35.2-22.2-56.3-21.8-6.4 0.1-12.6 1-18.6 2.6 1.3-6.1 1.9-12.4 1.8-18.7-0.5-21.1-9.1-40.7-24.3-55.3-15.2-14.5-35.2-22.2-56.3-21.8-21.1 0.5-40.7 9.1-55.3 24.3L153.2 478c-31-38.7-46.1-83.7-46.1-136.8 0-123.3 100.3-223.7 223.7-223.7 59.1 0 115.6 23.4 157.3 64.7l-99.3 97.4c-19.1 18.7-29.7 43.8-30 70.7-0.3 26.9 9.9 52.2 28.6 71.3 19.6 20 45.7 30.1 71.7 30.1 25.4 0 50.7-9.5 70.2-28.6l113.5-110.6 201.3 196.1c4.3 4.3 25.4 24.1 28.7 27.9l14.4 14.1 0.1 0.1c7.5 7.1 11.7 16.8 11.9 27.2 0.4 10.6-3.4 20.5-10.5 27.9z" p-id="1899"></path></svg>