<?xml version="1.0" standalone="no"?><!DOCTYPE svg PUBLIC "-//W3C//DTD SVG 1.1//EN" "http://www.w3.org/Graphics/SVG/1.1/DTD/svg11.dtd"><svg t="1575854827296" class="icon" viewBox="0 0 1024 1024" version="1.1" xmlns="http://www.w3.org/2000/svg" p-id="2415" xmlns:xlink="http://www.w3.org/1999/xlink" width="200" height="200"><defs><style type="text/css"></style></defs><path d="M112.64 491.52000001l204.8-128.00000001c10.24-5.12 25.6-5.12 35.84 10.24 0 5.12 5.12 10.24 5.12 15.36l0 256c0 5.12-10.24 20.48-25.6 20.48-5.12 0-10.24 0-15.36-5.12l-204.8-128.00000001c-10.24-5.12-15.36-25.6-10.23999999-35.83999999 5.12 0 10.24-5.12 10.23999999-5.11999999zM153.6 819.2L870.4 819.2c30.72 0 51.2 20.48 51.2 51.2s-20.48 51.2-51.2 51.2l-716.8 0c-30.72 0-51.2-20.48-51.2-51.2s25.6-51.2 51.2-51.2z m358.4-358.4L870.4 460.8c30.72 0 51.2 20.48 51.19999999 51.2s-20.48 51.2-51.19999999 51.2l-358.4 0c-30.72 0-51.2-20.48-51.2-51.2s25.6-51.2 51.2-51.2z m-358.4-358.4L870.4 102.4c30.72 0 51.2 20.48 51.2 51.2s-20.48 51.2-51.2 51.2l-716.8 0c-30.72 0-51.2-20.48-51.2-51.2s25.6-51.2 51.2-51.2z" p-id="2416"></path></svg>