<?xml version="1.0" standalone="no"?><!DOCTYPE svg PUBLIC "-//W3C//DTD SVG 1.1//EN" "http://www.w3.org/Graphics/SVG/1.1/DTD/svg11.dtd"><svg t="1570609845558" class="icon" viewBox="0 0 1024 1024" version="1.1" xmlns="http://www.w3.org/2000/svg" p-id="1801" xmlns:xlink="http://www.w3.org/1999/xlink" width="48" height="48"><defs><style type="text/css"></style></defs><path d="M900.129032 966.193548H110.658065c-31.380645 0-57.806452-26.425806-57.806452-57.806451V118.916129c0-31.380645 26.425806-57.806452 57.806452-57.806452h789.470967c31.380645 0 57.806452 26.425806 57.806452 57.806452V908.387097c0 31.380645-26.425806 57.806452-57.806452 57.806451z" fill="#F0F2F5" p-id="1802"></path><path d="M957.935484 213.058065H110.658065c-31.380645 0-57.806452-26.425806-57.806452-57.806452V118.916129c0-31.380645 26.425806-57.806452 57.806452-57.806452h789.470967c31.380645 0 57.806452 26.425806 57.806452 57.806452v94.141936z" fill="#FFFFFF" p-id="1803"></path><path d="M284.077419 966.193548H97.445161c-24.774194 0-44.593548-26.425806-44.593548-57.806451V117.264516c0-31.380645 19.819355-57.806452 44.593548-57.806451h231.225807v906.735483h-44.593549z" fill="#323649" p-id="1804"></path></svg>