<?xml version="1.0" standalone="no"?><!DOCTYPE svg PUBLIC "-//W3C//DTD SVG 1.1//EN" "http://www.w3.org/Graphics/SVG/1.1/DTD/svg11.dtd"><svg t="1569650504860" class="icon" viewBox="0 0 1024 1024" version="1.1" xmlns="http://www.w3.org/2000/svg" p-id="1421" xmlns:xlink="http://www.w3.org/1999/xlink" width="200" height="200"><defs><style type="text/css"></style></defs><path d="M825.59375 123.875c-26.71875 0-52.03125 8.4375-73.125 22.5C684.96875 94.34375 600.59375 64.8125 514.8125 64.8125c-52.03125 0-102.65625 9.84375-151.875 30.9375-8.4375 4.21875-12.65625 14.0625-9.84375 22.5 4.21875 8.4375 14.0625 12.65625 22.5 9.84375 43.59375-18.28125 90-28.125 137.8125-28.125 75.9375 0 150.46875 25.3125 210.9375 68.90625-21.09375 23.90625-35.15625 56.25-35.15625 91.40625 0 74.53125 60.46875 136.40625 136.40625 136.40625 74.53125 0 136.40625-60.46875 136.40625-136.40625s-60.46875-136.40625-136.40625-136.40625z m0 236.25c-56.25 0-101.25-45-101.25-101.25s45-101.25 101.25-101.25 101.25 45 101.25 101.25-45 101.25-101.25 101.25zM887.46875 438.875c-9.84375 0-16.875 8.4375-16.875 16.875 0 146.25-90 277.03125-225 330.46875-15.46875-57.65625-68.90625-99.84375-130.78125-99.84375-74.53125 0-136.40625 60.46875-136.40625 136.40625 0 74.53125 60.46875 136.40625 136.40625 136.40625 74.53125 0 136.40625-60.46875 136.40625-136.40625V821.375C803.09375 766.53125 905.75 618.875 905.75 455.75c0-9.84375-8.4375-16.875-18.28125-16.875zM514.8125 924.03125c-56.25 0-101.25-45-101.25-101.25s45-101.25 101.25-101.25 101.25 45 101.25 101.25-46.40625 101.25-101.25 101.25zM198.40625 395.28125c74.53125 0 136.40625-60.46875 136.40625-136.40625S272.9375 123.875 198.40625 123.875 62 184.34375 62 260.28125c0 50.625 28.125 94.21875 68.90625 118.125-5.625 25.3125-8.4375 52.03125-8.4375 77.34375C122.46875 589.34375 188.5625 711.6875 301.0625 784.8125c2.8125 1.40625 5.625 2.8125 9.84375 2.8125 5.625 0 11.25-2.8125 14.0625-8.4375 5.625-8.4375 2.8125-19.6875-5.625-23.90625C218.09375 689.1875 157.625 576.6875 157.625 455.75c0-21.09375 1.40625-43.59375 5.625-64.6875 11.25 2.8125 22.5 4.21875 35.15625 4.21875z m-101.25-135c0-56.25 45-101.25 101.25-101.25s101.25 45 101.25 101.25-45 101.25-101.25 101.25-101.25-46.40625-101.25-101.25z" fill="" p-id="1422"></path></svg>