<?xml version="1.0" standalone="no"?><!DOCTYPE svg PUBLIC "-//W3C//DTD SVG 1.1//EN" "http://www.w3.org/Graphics/SVG/1.1/DTD/svg11.dtd"><svg t="1569650475642" class="icon" viewBox="0 0 1024 1024" version="1.1" xmlns="http://www.w3.org/2000/svg" p-id="1065" xmlns:xlink="http://www.w3.org/1999/xlink" width="200" height="200"><defs><style type="text/css"></style></defs><path d="M796.69970703 113.00029297H736.70117188A49.5 49.5 0 0 0 689.89941406 143a82.8 82.8 0 0 1-77.4 54h-200.10058593a82.8 82.8 0 0 1-77.40000001-52.49970703 49.5 49.5 0 0 0-46.8-30.00058594H228.20117187A102.6 102.6 0 0 0 125 215.60029297v626.4a102.6 102.6 0 0 0 102.30029297 101.99970703h569.99970703A102.6 102.6 0 0 0 899 842.00029297V215.60029297A102.6 102.6 0 0 0 796.69970703 113.00029297z m68.10029297 729a68.4 68.4 0 0 1-68.4 68.4H226.40029297a68.4 68.4 0 0 1-67.20029297-68.4V215.60029297a68.4 68.4 0 0 1 68.10029297-68.4h59.99941406a15.60058594 15.60058594 0 0 1 14.70058594 9 117 117 0 0 0 109.49941406 76.19941406H610.70117188a117 117 0 0 0 111.29941406-76.19941406 15.60058594 15.60058594 0 0 1 14.70058593-9.30058594h59.99941407a68.4 68.4 0 0 1 68.4 68.4z" p-id="1066"></path><path d="M428.3 152h167.4a36 36 0 1 0 0-71.70029297H428.3a36 36 0 1 0 0 71.70029297zM300.5 393.49970703a27 27 0 1 0 54 0 27 27 0 1 0-54 0zM705.5 375.49970703H417.5a18 18 0 1 0 0 36h288a18 18 0 1 0 0-36zM300.5 564.49970703a27 27 0 1 0 54 0 27 27 0 1 0-54 0zM705.5 546.49970703H417.5a18 18 0 1 0 0 36h288a18 18 0 1 0 0-36zM300.5 735.49970703a27 27 0 1 0 54 0 27 27 0 1 0-54 0zM705.5 717.49970703H417.5a18 18 0 1 0 0 36h288a18 18 0 1 0 0-36z" p-id="1067"></path></svg>