<?xml version="1.0" standalone="no"?><!DOCTYPE svg PUBLIC "-//W3C//DTD SVG 1.1//EN" "http://www.w3.org/Graphics/SVG/1.1/DTD/svg11.dtd"><svg t="1570328250653" class="icon" viewBox="0 0 1024 1024" version="1.1" xmlns="http://www.w3.org/2000/svg" p-id="2603" xmlns:xlink="http://www.w3.org/1999/xlink" width="200" height="200"><defs><style type="text/css"></style></defs><path d="M873.2 983.36H149.12c-60 0-108.84-48.72-108.84-108.84V150.44C40.28 90.32 89 41.6 149.12 41.6H873.2c60 0 108.84 48.72 108.84 108.84v724.2c-3.72 60-52.56 108.72-108.84 108.72zM149.12 79.16c-37.56 0-71.28 33.72-71.28 75v724.2c0 37.56 30 71.28 71.28 71.28H873.2c37.56 0 71.28-30 71.28-71.28V150.44c0-37.56-30-71.28-71.28-71.28H149.12z m0 3.72" p-id="2604"></path><path d="M464.24 296.72c22.56 0 41.28 0 60-3.72v33.72c-11.28 0-22.56-3.72-33.72-3.72v277.68c15-3.72 33.72-7.56 52.56-15v41.28c-18.72 3.72-33.72 7.44-52.56 11.28 0 52.56 0 93.84 3.72 116.28h-41.28c0-18.72 3.72-56.28 3.72-108.84-33.72 7.56-63.84 15-90 26.28-26.28 11.28-48.72 18.72-71.28 30L280.4 653.24l45-7.56V326.72c-11.28 0-26.28 0-41.28 3.72v-33.72c18.72 0 41.28 3.72 71.28 3.72h108.84v-3.72z m-11.28 116.28v-86.28h-93.84v86.28h93.84z m0 105.12v-71.28h-93.84v71.28h93.84z m0 97.56v-67.56h-93.84V634.4c33.84-3.72 63.84-11.28 93.84-18.72z m105.12 52.56c15-15 30-37.56 48.72-63.84-18.72-37.56-33.72-78.84-41.28-116.28-7.56-41.28-11.28-86.28-15-138.84h-15v-33.72c26.28 0 52.56 3.72 75 3.72H726.8c-3.72 67.56-15 123.84-22.56 165.12-11.28 45-26.28 82.56-48.72 120.12 11.28 18.72 26.28 37.56 45 52.56 18.72 15 37.56 30 60 41.28-15 11.28-26.28 22.56-33.72 33.72-30-18.72-60-52.56-93.84-97.56-26.28 41.28-52.56 75-82.56 101.28-7.56-11.28-18.72-22.56-37.56-30 11.4-7.56 30.24-22.56 45.24-37.56z m41.28-195.12c3.72 26.28 11.28 60 26.28 93.84 22.56-45 37.56-86.28 41.28-127.56 3.72-41.28 11.28-71.28 11.28-90h-93.84c7.44 52.44 11.16 93.72 15 123.72z m0 0" p-id="2605"></path></svg>