<?xml version="1.0" standalone="no"?><!DOCTYPE svg PUBLIC "-//W3C//DTD SVG 1.1//EN" "http://www.w3.org/Graphics/SVG/1.1/DTD/svg11.dtd"><svg t="1569650495847" class="icon" viewBox="0 0 1024 1024" version="1.1" xmlns="http://www.w3.org/2000/svg" p-id="1184" xmlns:xlink="http://www.w3.org/1999/xlink" width="200" height="200"><defs><style type="text/css"></style></defs><path d="M611.07645099 488.86142293a130.01876366 130.01876366 0 0 0 0.55691036-185.77970517 133.14585031 133.14585031 0 0 0-94.19707733-38.64119069l-0.02330169-0.01165084a133.52566784 133.52566784 0 0 0-94.5069898 38.27535417 130.10731008 130.10731008 0 0 0-0.49166563 185.90553429c16.91003563 16.54652928 49.29472285 28.26727879 72.26319758 33.94124004l-0.80856861 212.7257782c0.02330169 8.77774621-3.93798542 32.87868302 21.89892722 32.87868302 24.14287986 0 23.18285027-24.08462563 23.22013298-32.83440981l0.24932807-101.98683193 65.3262848 0.12582912c8.82434958 0.03961287 33.44258389-0.89478485 33.44258389-22.60030805 0-23.85626909-24.48308451-23.86791993-33.25617038-23.79568469l-65.32861496-0.12582912 0.30991246-64.32897252c23.01740829-5.5947355 54.34419883-17.24791011 71.34511104-33.74783602z m-92.2676975-9.00610275a86.44926578 86.44926578 0 0 1-61.24149874-25.05863623 84.71562013 84.71562013 0 0 1-25.26136092-60.62167382 83.70898717 83.70898717 0 0 1 25.58758457-60.28612949c34.20454912-33.29811342 88.73749163-33.19325582 122.81155129 0.24233757a83.94433422 83.94433422 0 0 1 25.25903076 60.52147654l-0.01165085-0.06524472c-0.11184811 45.69694208-40.49134478 85.42865181-87.14365611 85.26787015z" p-id="1185"></path><path d="M873.19481913 161.62648519L511.95805696 46.89828978 150.80518087 161.63580587a32.55944989 32.55944989 0 0 0-22.69817514 31.16600888l1.84782392 451.02515997 0.42176057 5.14734307c0.6967205 3.12708665 15.47465159 78.58494578 89.34799588 151.28155478 56.79786667 56.01026958 196.1209947 129.21019506 255.55661255 160.44377884 9.34397725 4.93063737 16.3205029 8.54938965 20.30276153 10.78635179l6.79011214 3.67234617a15.91505351 15.91505351 0 0 0 14.83618531 0.20738503l9.89389711-5.02151395c34.73815779-17.04984576 211.46748701-105.32363378 277.13630663-170.04407467 73.96422087-72.75253305 88.74215197-148.18942066 89.3689674-151.32582799l2.2835655-456.14920134a32.55711971 32.55711971 0 0 0-22.69817514-31.19863126zM849.71137707 659.86785735l-0.02330169-0.01165084c-2.78455182 11.08228323-33.45423474 65.7457152-87.33239979 118.80133063-52.03966179 51.35692231-193.11740701 124.70131826-244.40675442 150.52891022a15.82184675 15.82184675 0 0 1-14.61714944-0.1724325h-0.08155591c-52.26801835-27.45638002-191.02724551-100.33707235-241.6664758-150.30987435-54.02496569-53.12319033-84.58047033-107.70972672-87.36502215-118.80133062l-1.65675008-454.18952932c-0.01864135-6.29378617 18.80213277-11.87454066 24.79299698-13.79692999l304.84667505-96.86745088a32.24720725 32.24720725 0 0 1 19.51516445 0l304.84434488 96.86745088c6.02814691 1.89209714 24.8885339 7.47751197 24.88620374 13.79692999l-1.73597582 454.15457678z" p-id="1186"></path></svg>