<?xml version="1.0" standalone="no"?><!DOCTYPE svg PUBLIC "-//W3C//DTD SVG 1.1//EN" "http://www.w3.org/Graphics/SVG/1.1/DTD/svg11.dtd"><svg t="1595381419904" class="icon" viewBox="0 0 1024 1024" version="1.1" xmlns="http://www.w3.org/2000/svg" p-id="3879" xmlns:xlink="http://www.w3.org/1999/xlink" width="200" height="200"><defs><style type="text/css"></style></defs><path d="M907.636364 626.036364h-106.589091a30.952727 30.952727 0 0 0 0-6.516364 151.970909 151.970909 0 0 0-98.676364-114.269091 35.141818 35.141818 0 0 0-9.541818-1.396364H546.909091v-42.58909h64.232727a34.909091 34.909091 0 0 0 30.254546-17.454546l99.374545-171.985454a34.676364 34.676364 0 0 0 0-34.909091L641.396364 65.163636a34.443636 34.443636 0 0 0-30.254546-17.454545h-198.283636a34.443636 34.443636 0 0 0-30.254546 17.454545l-99.374545 171.752728a34.676364 34.676364 0 0 0 0 34.909091l99.374545 171.985454a34.909091 34.909091 0 0 0 30.254546 17.454546h64.232727v42.58909H325.818182c-78.661818 4.887273-100.072727 105.425455-102.167273 116.363637a41.658182 41.658182 0 0 0 0 5.352727H117.527273a34.909091 34.909091 0 0 0-34.909091 34.909091v280.901818A34.909091 34.909091 0 0 0 117.527273 977.454545H397.963636a34.909091 34.909091 0 0 0 34.909091-34.90909V660.945455a34.909091 34.909091 0 0 0-34.909091-34.909091h-104.029091c5.585455-20.945455 19.316364-51.432727 33.745455-52.363637h357.934545a84.247273 84.247273 0 0 1 43.985455 52.363637H626.036364a34.909091 34.909091 0 0 0-34.909091 34.909091v280.436363A34.909091 34.909091 0 0 0 626.036364 977.454545H907.636364a34.909091 34.909091 0 0 0 34.909091-34.90909V660.945455a34.909091 34.909091 0 0 0-34.909091-34.909091z m-552.727273-372.363637l79.127273-136.843636h158.254545l79.127273 136.843636-79.127273 137.076364H432.872727z m9.309091 651.636364h-209.454546v-209.454546h208.290909z m508.509091 0h-211.781818v-209.454546h210.618181z" p-id="3880"></path><path d="M512 165.701818a88.901818 88.901818 0 1 0 88.901818 88.669091A88.901818 88.901818 0 0 0 512 165.701818z m0 107.752727a19.083636 19.083636 0 0 1-19.083636-19.083636 19.083636 19.083636 0 0 1 38.167272 0 19.083636 19.083636 0 0 1-19.083636 19.083636z" p-id="3881"></path></svg>