<?xml version="1.0" standalone="no"?><!DOCTYPE svg PUBLIC "-//W3C//DTD SVG 1.1//EN" "http://www.w3.org/Graphics/SVG/1.1/DTD/svg11.dtd"><svg t="1588060394006" class="icon" viewBox="0 0 1024 1024" version="1.1" xmlns="http://www.w3.org/2000/svg" p-id="4767" xmlns:xlink="http://www.w3.org/1999/xlink" width="48" height="48"><defs><style type="text/css"></style></defs><path d="M959.804 912.488H890.73V427.556c0-28.322-17.271-53.715-43.35-64.068l-232.968-93.252V112.563c0-39.548-32.288-69.086-68.908-69.086-7.603 0-15.548 1.382-23.316 4.144L176.796 170.93c-27.636 9.68-45.935 35.747-45.935 64.93v676.629H61.788c-18.995 0-34.543 15.548-34.543 34.543s15.536 34.542 34.543 34.542h898.016c18.995 0 34.543-15.548 34.543-34.542s-15.548-34.543-34.543-34.543z m-138.16-484.92V912.5H614.413V344.67l207.233 82.897zM199.935 235.87l345.393-123.296V912.5H199.935V235.87z m0 0" p-id="4768"></path><path d="M234.478 342.592h103.616v69.085H234.478z m172.701 0h103.617v69.085H407.179zM234.478 526.863h103.616v69.085H234.478z m172.701 0h103.617v69.085H407.179zM234.478 711.134h103.616v69.086H234.478z m172.701 0h103.617v69.086H407.179z m259.047-184.27h103.617v69.084H666.226z m0 184.27h103.617v69.086H666.226z" p-id="4769"></path></svg>