<?xml version="1.0" standalone="no"?><!DOCTYPE svg PUBLIC "-//W3C//DTD SVG 1.1//EN" "http://www.w3.org/Graphics/SVG/1.1/DTD/svg11.dtd"><svg t="1570779791990" class="icon" viewBox="0 0 1024 1024" version="1.1" xmlns="http://www.w3.org/2000/svg" p-id="1702" xmlns:xlink="http://www.w3.org/1999/xlink" width="48" height="48"><defs><style type="text/css"></style></defs><path d="M512 932.75022223c-254.86222222 0-462.39288889-207.53066667-462.39288889-462.39288888v-3.64088889c0-18.20444445 18.20444445-32.768 36.40888889-32.768s36.40888889 18.20444445 36.40888889 36.40888889v3.64088888c0 211.17155555 174.76266667 385.93422222 389.57511111 385.93422223s389.57511111-174.76266667 389.57511111-389.57511111c0-21.84533333 14.56355555-36.40888889 36.40888889-36.40888889s36.40888889 14.56355555 36.40888889 36.40888889c0 254.86222222-207.53066667 462.39288889-462.39288889 462.39288888z" fill="#999899" p-id="1703"></path><path d="M493.79555555 492.20266668c-7.28177778 0-18.20444445-3.64088889-25.48622222-7.28177778l-196.608-171.12177777c-14.56355555-14.56355555-18.20444445-36.40888889-3.64088888-50.97244445 14.56355555-14.56355555 36.40888889-18.20444445 50.97244444-3.64088889l171.12177778 149.27644444L799.63022222 62.57777779c14.56355555-14.56355555 36.40888889-14.56355555 50.97244445-3.64088889 14.56355555 14.56355555 14.56355555 36.40888889 3.64088888 50.97244445l-331.32088888 371.37066666c-7.28177778 7.28177778-18.20444445 10.92266667-29.12711112 10.92266667z" fill="#999899" p-id="1704"></path></svg>