<?xml version="1.0" standalone="no"?><!DOCTYPE svg PUBLIC "-//W3C//DTD SVG 1.1//EN" "http://www.w3.org/Graphics/SVG/1.1/DTD/svg11.dtd"><svg t="1570328241117" class="icon" viewBox="0 0 1024 1024" version="1.1" xmlns="http://www.w3.org/2000/svg" p-id="2476" xmlns:xlink="http://www.w3.org/1999/xlink" width="200" height="200"><defs><style type="text/css"></style></defs><path d="M421.73893547 668.7137504l27.67456533 34.89283093c88.99216427-47.5054208 141.8930016-107.6496288 158.7254336-180.40642666l163.57072 0 0-40.88749547L615.97063893 482.3126592c3.62059413-25.26338347 5.40633173-55.3229344 6.6081024-89.00307947l128.70081174 0 0-39.6879072-78.19914987 0c16.8553536-28.26180693 31.8813088-60.73035733 45.119344-97.40892586l-40.91150933-14.4365312c-13.21183787 39.6879072-29.45812053 76.9657248-48.1046688 111.84545706L447.60156693 353.62167147l0 39.6879072 132.30175787 0c-1.22469333 33.68014507-3.62168533 63.14154027-7.2411872 89.00307946L427.1474496 482.3126592l0 40.88749547L563.04469653 523.20015467C545.01049387 583.331264 497.51707947 631.43593387 421.73893547 668.7137504z" p-id="2477"></path><path d="M566.0551264 334.3769664c-18.03420267-31.8693024-36.67856853-61.3306976-56.52361387-87.79257707l-39.0755616 18.64545707c21.04245013 25.25137707 40.8634816 54.7236864 58.92060694 87.19332907L566.0551264 334.3769664z" p-id="2478"></path><path d="M609.94977813 587.53909867c45.7065856 33.69324373 89.01726933 72.76880427 131.1032608 117.28999253l30.04645334-32.49474773c-40.27624-40.89950187-85.39667627-78.77656747-135.28599147-113.64320214L609.94977813 587.53909867z" p-id="2479"></path><path d="M887.53918507 35.11529813L135.59960107 35.11529813c-55.44518613 0-100.10063147 44.7656896-100.10063147 99.97837974l0 752.1731712c0 55.24980267 44.80170987 99.979472 100.10063147 99.979472l751.939584 0c55.44736853 0 100.0777088-44.777696 100.0777088-99.979472L987.61689387 135.09258667C987.61580267 79.8438752 942.79007893 35.11529813 887.53918507 35.11529813zM937.50490667 887.26575787c0 27.6003424-22.2660512 49.8674848-49.96572267 49.8674848L135.59960107 937.13324267c-27.64946027 0-49.98864427-22.31407893-49.98864427-49.8674848L85.6109568 135.09258667c0-27.6003424 22.26496-49.8663936 49.98864427-49.8663936l751.939584 0c27.6014336 0 49.96572267 22.31626133 49.96572266 49.8663936L937.50490667 887.26575787z" p-id="2480"></path><path d="M634.6150048 746.2787232c-47.51742827 0-87.20642667-0.5872416-119.08882773-1.17339093-36.06622187-1.22360107-63.1284416-6.0197696-82.36004907-14.4376224-16.83570667-7.82952-32.49474773-20.45520853-46.90726507-37.87706454-5.40742293-6.0197696-10.22760427-10.22760427-15.0477856-13.8492896L371.21107733 454.03993707 245.54252693 454.03993707l0 39.69991466 85.3944928 0 0 182.80451094c-24.66522667 10.81593707-52.9248512 41.49874987-84.80834346 92.001504l32.49474773 28.8730624c33.08198827-55.34803947 57.108672-82.4102592 71.5452032-82.4102592 7.2171744 0 15.024864 4.8441952 23.4645472 15.07398293 18.62144427 21.62859947 40.30025387 36.65237227 64.32912107 43.89574293 24.07689387 6.60701013 55.93418987 10.22760427 95.0097504 10.81484587 38.51451627 0.5872416 74.5807392 1.17448213 107.66381866 1.17448213l136.48339627 0 10.22760427-43.26047466c-15.6361184 1.17448213-37.87706453 1.80975147-66.74794347 2.39808426C691.13752747 745.6914816 662.26337387 746.2787232 634.6150048 746.2787232z" p-id="2481"></path><path d="M362.20707413 378.87304853l31.2700544-30.6588c-28.2847296-31.2711456-63.1284416-61.941952-104.62719146-93.2120064l-29.45921174 28.26180694C303.28755947 317.54235093 337.54293867 349.4127456 362.20707413 378.87304853z" p-id="2482"></path></svg>