<?xml version="1.0" standalone="no"?><!DOCTYPE svg PUBLIC "-//W3C//DTD SVG 1.1//EN" "http://www.w3.org/Graphics/SVG/1.1/DTD/svg11.dtd"><svg t="1571022240833" class="icon" viewBox="0 0 1024 1024" version="1.1" xmlns="http://www.w3.org/2000/svg" p-id="4084" xmlns:xlink="http://www.w3.org/1999/xlink" width="48" height="48"><defs><style type="text/css"></style></defs><path d="M911.272 270.175a18.169 18.169 0 0 0-18.168 18.169V421.01a18.169 18.169 0 1 0 36.337 0V288.344a18.169 18.169 0 0 0-18.169-18.169z" p-id="4085"></path><path d="M911.272 444.299a23.318 23.318 0 0 1-23.318-23.303V288.344a23.289 23.289 0 0 1 46.578 0V421.01a23.318 23.318 0 0 1-23.26 23.289z m0-169.004a13.063 13.063 0 0 0-13.048 13.049V421.01a13.049 13.049 0 0 0 26.097 0V288.344a13.063 13.063 0 0 0-13.049-13.049z" p-id="4086"></path><path d="M911.77 470.543a23.142 23.142 0 0 0-16.501 6.817 23.406 23.406 0 0 0-6.832 16.471v72.69a67.57 67.57 0 0 1-67.57 67.57H203.089a67.57 67.57 0 0 1-67.569-67.57V203.088a67.643 67.643 0 0 1 67.57-67.569h617.823a67.57 67.57 0 0 1 67.569 67.57 23.289 23.289 0 1 0 46.577 0A114.278 114.278 0 0 0 820.955 88.985H203.088A114.278 114.278 0 0 0 88.986 203.088v363.433a114.278 114.278 0 0 0 114.102 114.103h617.824A114.278 114.278 0 0 0 935.014 566.52v-72.69a23.406 23.406 0 0 0-6.831-16.471 23.128 23.128 0 0 0-16.413-6.817zM839.08 888.48H184.92a23.289 23.289 0 1 0 0 46.577h654.16a23.289 23.289 0 1 0 0-46.577zM657.364 761.27H366.636a23.289 23.289 0 0 0 0 46.592h290.728a23.289 23.289 0 0 0 0-46.592z" p-id="4087"></path><path d="M675.547 366.636h-37.741a127.18 127.18 0 0 0-23.991-57.783l26.712-26.712a18.169 18.169 0 1 0-25.63-25.629l-26.887 26.536a127.269 127.269 0 0 0-57.783-23.99v-37.8a18.169 18.169 0 0 0-36.352 0v37.8a127.269 127.269 0 0 0-57.783 23.99l-26.887-26.712a18.169 18.169 0 0 0-25.63 25.615l26.669 26.712a127.137 127.137 0 0 0-24.05 57.973h-37.741a18.169 18.169 0 1 0 0 36.337h37.741a127.18 127.18 0 0 0 23.991 57.783l-26.712 26.712a18.169 18.169 0 1 0 25.63 25.63l26.828-26.727a127.18 127.18 0 0 0 57.9 24.166v37.8a18.169 18.169 0 0 0 36.352 0v-37.8a127.269 127.269 0 0 0 57.783-23.99l26.712 26.711a18.169 18.169 0 0 0 25.615-25.615L613.756 460.8a127.18 127.18 0 0 0 23.991-57.783h37.8a18.169 18.169 0 0 0 0-36.337zM512 475.663a90.858 90.858 0 1 1 90.858-90.932A90.858 90.858 0 0 1 512 475.663z" p-id="4088"></path></svg>