<?xml version="1.0" standalone="no"?><!DOCTYPE svg PUBLIC "-//W3C//DTD SVG 1.1//EN" "http://www.w3.org/Graphics/SVG/1.1/DTD/svg11.dtd"><svg t="1569650523670" class="icon" viewBox="0 0 1024 1024" version="1.1" xmlns="http://www.w3.org/2000/svg" p-id="2016" xmlns:xlink="http://www.w3.org/1999/xlink" width="200" height="200"><defs><style type="text/css"></style></defs><path d="M192 907.52a23.04 23.04 0 0 1-23.04-23.04v-71.04a337.92 337.92 0 0 1 60.8-192A350.08 350.08 0 0 1 384 495.36l19.84-7.68-16.64-12.8a202.24 202.24 0 1 1 248.96 0l-17.28 12.8 19.84 7.68a352 352 0 0 1 156.8 124.16 337.92 337.92 0 0 1 64 192v71.04a23.68 23.68 0 0 1-23.68 23.04z m320-389.76a296.96 296.96 0 0 0-297.6 295.68v47.36h595.84v-47.36A296.96 296.96 0 0 0 512 517.76z m0-354.56A154.24 154.24 0 1 0 667.52 320 154.88 154.88 0 0 0 512 163.2z m412.16 640c0-15.36 0-31.36-4.48-46.72h32.64v-33.28a225.92 225.92 0 0 0-170.88-218.24h-6.4a22.4 22.4 0 0 1 0-42.88A117.76 117.76 0 0 0 768 241.28a155.52 155.52 0 0 0-25.6-53.12 166.4 166.4 0 0 1 151.68 164.48 163.2 163.2 0 0 1-43.52 110.72l-10.24 11.52 14.08 7.68a269.44 269.44 0 0 1 146.56 240.64v55.04a23.04 23.04 0 0 1-23.04 23.04z m-876.16 0a23.04 23.04 0 0 1-23.04-23.04v-56.96a269.44 269.44 0 0 1 146.56-240.64l14.08-7.68-10.24-11.52a163.2 163.2 0 0 1-43.52-110.72 166.4 166.4 0 0 1 151.68-164.48 223.36 223.36 0 0 0-27.52 56.32 112.64 112.64 0 0 0-77.44 108.16 119.68 119.68 0 0 0 70.4 108.16 23.68 23.68 0 0 1 16.64 21.12 23.68 23.68 0 0 1-16.64 21.76h-6.4a225.92 225.92 0 0 0-170.88 219.52v31.36h32.64c0 15.36-3.84 30.72-4.48 46.72z" p-id="2017"></path></svg>